# xmcd
#
# Track frame offsets: 
#        150
#        18517
#        38890
#        57647
#        74885
#        105644
#        130531
#        148870
#        168748
#        186933
#        216292
#        235265
#        244102
#        259940
#
# Disc length: 3874 seconds
#
# Revision: 0
# Processed by: cddbd v1.5.2PL0 Copyright (c) Steve Scherf et al.
# Submitted via: ExactAudioCopy v1.3
#
DISCID=de0f200e
DTITLE=The Flaming Mudcats - Mistress
DYEAR=2014
DGENRE=Harmonica Blues, Guitar Blues
TTITLE0=My Baby Rocks
TTITLE1=Can't Take It With You
TTITLE2=Breaking Up Somebody's Home
TTITLE3=Big Bad Wolf
TTITLE4=Drinking My Life Away
TTITLE5=Lately
TTITLE6=Itchin' And Scratchin'
TTITLE7=Why'd You Break My Heart
TTITLE8=Blue Nun
TTITLE9=What's Good For The Goose
TTITLE10=Easy To Please
TTITLE11=Superman
TTITLE12=Heavy
TTITLE13=Boogie Tonight
EXTD=
EXTT0=
EXTT1=
EXTT2=
EXTT3=
EXTT4=
EXTT5=
EXTT6=
EXTT7=
EXTT8=
EXTT9=
EXTT10=
EXTT11=
EXTT12=
EXTT13=
PLAYORDER=
